<?xml version="1.0" encoding="utf-8"?>
<!-- Generator: Adobe Illustrator 17.0.0, SVG Export Plug-In . SVG Version: 6.00 Build 0)  -->
<!DOCTYPE svg PUBLIC "-//W3C//DTD SVG 1.1//EN" "http://www.w3.org/Graphics/SVG/1.1/DTD/svg11.dtd">
<svg version="1.1" xmlns="http://www.w3.org/2000/svg" xmlns:xlink="http://www.w3.org/1999/xlink" x="0px" y="0px"
	 preserveAspectRatio="xMinYMin meet" viewBox="0 0 956.816 265" enable-background="new 0 0 956.816 265" xml:space="preserve">
<g id="Layer_1">
</g>
<g id="Layer_2">
	<g>
		<g>
			<path fill="#2B62AE" d="M372.105,155.912c0,10.564-3.672,18.61-11.01,24.139c-7.342,5.528-18.32,8.292-32.938,8.292
				c-7.494,0-13.883-0.507-19.164-1.521c-5.283-1.014-10.227-2.502-14.834-4.468v-23.218c5.221,2.457,11.104,4.515,17.645,6.173
				s12.299,2.487,17.275,2.487c10.193,0,15.293-2.948,15.293-8.845c0-2.211-0.676-4.008-2.027-5.39s-3.686-2.948-7.002-4.698
				c-3.316-1.751-7.738-3.792-13.268-6.127c-7.922-3.317-13.742-6.388-17.459-9.214c-3.717-2.824-6.418-6.064-8.107-9.72
				c-1.689-3.653-2.533-8.153-2.533-13.497c0-9.151,3.547-16.229,10.641-21.236c7.096-5.006,17.152-7.509,30.174-7.509
				c12.406,0,24.477,2.703,36.209,8.107l-8.477,20.269c-5.16-2.211-9.982-4.021-14.465-5.436c-4.484-1.412-9.061-2.119-13.729-2.119
				c-8.291,0-12.438,2.243-12.438,6.726c0,2.52,1.336,4.699,4.008,6.542s8.521,4.576,17.551,8.199
				c8.047,3.257,13.943,6.297,17.689,9.121c3.746,2.826,6.51,6.081,8.293,9.767C371.214,146.423,372.105,150.814,372.105,155.912z"
				/>
			<path fill="#2B62AE" d="M380.382,56.87c0-9.151,5.096-13.728,15.293-13.728c10.195,0,15.295,4.576,15.295,13.728
				c0,4.361-1.275,7.755-3.824,10.181c-2.549,2.427-6.373,3.639-11.471,3.639C385.478,70.689,380.382,66.083,380.382,56.87z
				 M409.679,186.5h-28.1V83.496h28.1V186.5z"/>
			<path fill="#2B62AE" d="M518.933,186.5h-28.102v-60.162c0-7.432-1.242-13.006-3.73-16.723c-2.488-3.715-6.404-5.574-11.748-5.574
				c-7.186,0-12.406,2.642-15.662,7.924c-3.256,5.283-4.883,13.974-4.883,26.073V186.5h-28.1V83.496h21.467l3.777,13.175h1.566
				c2.764-4.729,6.756-8.43,11.977-11.102s11.209-4.008,17.967-4.008c15.416,0,25.857,5.037,31.324,15.109h2.488
				c2.764-4.791,6.832-8.506,12.207-11.147c5.373-2.641,11.439-3.962,18.195-3.962c11.67,0,20.5,2.994,26.488,8.982
				c5.988,5.989,8.982,15.586,8.982,28.791V186.5h-28.191v-60.162c0-7.432-1.244-13.006-3.732-16.723
				c-2.486-3.715-6.402-5.574-11.746-5.574c-6.879,0-12.023,2.458-15.432,7.371c-3.41,4.915-5.113,12.714-5.113,23.401V186.5z"/>
			<path fill="#2B62AE" d="M656.103,188.343c-12.102,0-21.592-4.391-28.469-13.175h-1.475c0.982,8.6,1.475,13.573,1.475,14.925
				v41.736h-28.102V83.496h22.85l3.961,13.359h1.291c6.57-10.195,16.307-15.294,29.205-15.294c12.162,0,21.682,4.698,28.561,14.096
				s10.32,22.45,10.32,39.156c0,10.996-1.613,20.546-4.838,28.653s-7.816,14.28-13.773,18.519
				C671.15,186.224,664.148,188.343,656.103,188.343z M647.81,104.041c-6.941,0-12.008,2.136-15.201,6.403
				c-3.195,4.271-4.854,11.318-4.975,21.145v3.041c0,11.056,1.643,18.979,4.928,23.77s8.492,7.187,15.617,7.187
				c12.59,0,18.887-10.379,18.887-31.141c0-10.135-1.551-17.735-4.652-22.803S654.445,104.041,647.81,104.041z"/>
			<path fill="#2B62AE" d="M763.052,188.343c-12.1,0-21.59-4.391-28.469-13.175h-1.475c0.982,8.6,1.475,13.573,1.475,14.925v41.736
				h-28.1V83.496h22.848l3.963,13.359h1.289c6.572-10.195,16.309-15.294,29.207-15.294c12.16,0,21.68,4.698,28.561,14.096
				c6.879,9.397,10.318,22.45,10.318,39.156c0,10.996-1.611,20.546-4.836,28.653s-7.818,14.28-13.775,18.519
				S771.099,188.343,763.052,188.343z M754.761,104.041c-6.941,0-12.01,2.136-15.203,6.403c-3.193,4.271-4.852,11.318-4.975,21.145
				v3.041c0,11.056,1.643,18.979,4.93,23.77c3.285,4.791,8.49,7.187,15.615,7.187c12.592,0,18.889-10.379,18.889-31.141
				c0-10.135-1.553-17.735-4.652-22.803C766.261,106.575,761.394,104.041,754.761,104.041z"/>
			<path fill="#2B62AE" d="M841.535,186.5h-28.102V43.143h28.102V186.5z"/>
			<path fill="#2B62AE" d="M849.482,83.496h30.773l19.439,57.951c1.658,5.037,2.795,10.995,3.408,17.874h0.553
				c0.676-6.326,1.996-12.284,3.963-17.874l19.07-57.951h30.127l-43.578,116.179c-3.992,10.748-9.689,18.795-17.09,24.139
				c-7.402,5.344-16.047,8.016-25.936,8.016c-4.854,0-9.613-0.522-14.281-1.566v-22.296c3.377,0.798,7.063,1.198,11.057,1.198
				c4.975,0,9.32-1.521,13.037-4.561c3.715-3.041,6.617-7.633,8.705-13.774l1.66-5.067L849.482,83.496z"/>
		</g>
		<g>
			<g>
				<linearGradient id="SVGID_1_" gradientUnits="userSpaceOnUse" x1="73.2507" y1="114.0243" x2="166.3898" y2="23.0334">
					<stop  offset="0" style="stop-color:#3B3D5D"/>
					<stop  offset="0.4677" style="stop-color:#557D9F"/>
					<stop  offset="1" style="stop-color:#557D9F"/>
				</linearGradient>
				<polygon fill="url(#SVGID_1_)" points="72.65,81.2 106.85,47 175.25,47 106.85,115.4 				"/>
				<linearGradient id="SVGID_2_" gradientUnits="userSpaceOnUse" x1="195.2163" y1="147.1433" x2="97.9732" y2="243.3119">
					<stop  offset="0" style="stop-color:#3B3D5D"/>
					<stop  offset="0.4677" style="stop-color:#557D9F"/>
					<stop  offset="1" style="stop-color:#557D9F"/>
				</linearGradient>
				<polygon fill="url(#SVGID_2_)" points="192.35,183.8 158.15,218 89.75,218 158.15,149.6 				"/>
				<linearGradient id="SVGID_3_" gradientUnits="userSpaceOnUse" x1="54.1633" y1="100.3692" x2="218.5756" y2="167.805">
					<stop  offset="0.0806" style="stop-color:#2B62AE"/>
					<stop  offset="0.4677" style="stop-color:#1E7FC3"/>
					<stop  offset="0.9355" style="stop-color:#2B62AE"/>
				</linearGradient>
				<polygon fill="url(#SVGID_3_)" points="72.65,81.2 192.35,132.5 192.35,183.8 72.65,132.5 				"/>
				<linearGradient id="SVGID_4_" gradientUnits="userSpaceOnUse" x1="72.65" y1="200.9" x2="158.15" y2="200.9">
					<stop  offset="0.0806" style="stop-color:#2B62AE"/>
					<stop  offset="0.4677" style="stop-color:#1E7FC3"/>
					<stop  offset="0.9355" style="stop-color:#2B62AE"/>
				</linearGradient>
				<polygon fill="url(#SVGID_4_)" points="158.15,218 72.65,183.8 89.75,218 				"/>
				<linearGradient id="SVGID_5_" gradientUnits="userSpaceOnUse" x1="106.85" y1="64.1" x2="192.35" y2="64.1">
					<stop  offset="0.0806" style="stop-color:#2B62AE"/>
					<stop  offset="0.4677" style="stop-color:#1E7FC3"/>
					<stop  offset="0.9355" style="stop-color:#2B62AE"/>
				</linearGradient>
				<polygon fill="url(#SVGID_5_)" points="106.85,47 192.35,81.2 175.25,47 				"/>
			</g>
			<linearGradient id="SVGID_6_" gradientUnits="userSpaceOnUse" x1="0" y1="132.5" x2="265" y2="132.5">
				<stop  offset="0.0806" style="stop-color:#2B62AE"/>
				<stop  offset="0.4677" style="stop-color:#1E7FC3"/>
				<stop  offset="0.9355" style="stop-color:#2B62AE"/>
			</linearGradient>
			<path fill="none" stroke="url(#SVGID_6_)" stroke-width="13" stroke-miterlimit="10" d="M258.5,246.5c0,6.627-5.373,12-12,12
				h-228c-6.627,0-12-5.373-12-12v-228c0-6.627,5.373-12,12-12h228c6.627,0,12,5.373,12,12V246.5z"/>
		</g>
	</g>
</g>
</svg>
